<?xml version="1.0" standalone="no"?>
<!DOCTYPE svg PUBLIC "-//W3C//DTD SVG 20010904//EN"
 "http://www.w3.org/TR/2001/REC-SVG-20010904/DTD/svg10.dtd">
<svg version="1.0" xmlns="http://www.w3.org/2000/svg"
 width="268.000000pt" height="268.000000pt" viewBox="0 0 268.000000 268.000000"
 preserveAspectRatio="xMidYMid meet">
<metadata>
Created by potrace 1.11, written by Peter Selinger 2001-2013
</metadata>
<g transform="translate(0.000000,268.000000) scale(0.100000,-0.100000)"
fill="#000000" stroke="none">
<path d="M2018 2652 c-12 -16 -34 -43 -48 -62 -127 -169 -233 -298 -243 -295
-12 4 -48 10 -142 23 -108 15 -505 7 -615 -13 -14 -2 -38 -6 -54 -9 -16 -3
-53 -10 -83 -16 -29 -6 -55 -11 -58 -11 -3 0 -58 -18 -122 -40 -171 -59 -307
-129 -387 -199 l-28 -25 5 -145 c13 -339 123 -700 299 -983 l48 -79 -22 -31
c-12 -18 -34 -48 -49 -67 -32 -41 -219 -534 -226 -597 -10 -79 65 -117 147
-75 29 15 130 91 225 170 11 9 62 50 112 90 51 41 101 84 112 97 17 23 19 23
37 7 95 -87 245 -190 340 -233 77 -35 90 -33 208 34 288 163 556 467 741 842
61 122 133 308 150 385 2 8 9 38 15 65 17 71 20 86 26 124 3 18 7 42 9 52 8
40 18 186 18 267 1 97 3 94 -120 163 -40 23 -73 43 -73 47 0 3 41 58 90 123
50 65 90 121 89 126 0 4 -74 64 -165 133 -91 69 -175 133 -186 143 -12 9 -22
17 -24 17 -1 0 -13 -13 -26 -28z"/>
</g>
</svg>
