<svg width="70" height="71" xmlns="http://www.w3.org/2000/svg" xmlns:xlink="http://www.w3.org/1999/xlink"><defs><path id="a" d="M0 70h69.762V.01H0z"/></defs><g fill="none" fill-rule="evenodd"><g transform="translate(0 .133)"><mask id="b" fill="#fff"><use xlink:href="#a"/></mask><path d="M69.762 35.13c0 9.735-3.249 18.998-9.583 25.378C53.846 66.887 44.65 70 34.983 70c-9.664 0-18.19-3.79-24.523-10.169C4.125 53.452 0 44.865 0 35.131c0-9.735 3.96-18.488 10.294-24.867C16.628 3.884 25.318.009 34.984.009c9.664 0 18.413 3.818 24.746 10.197 6.334 6.38 10.032 15.19 10.032 24.925" fill="#EB7A38" mask="url(#b)"/></g><path fill="#21154C" d="M24.348 23.133l13.022 6.693L50 36.006l-12.6 6.245L24 49.133z"/></g></svg>