<svg id="Layer_1" data-name="Layer 1" xmlns="http://www.w3.org/2000/svg" viewBox="0 0 285.09 237.99"><defs><style>.cls-1{fill:#555759;}.cls-2{fill:#412447;}</style></defs><title>z-logo</title><polygon class="cls-1" points="0.52 176.38 0.52 178.85 15.78 178.85 0 198.92 0 200.77 19.55 200.77 19.55 198.29 3.73 198.29 19.55 178.22 19.55 176.38 0.52 176.38"/><path class="cls-1" d="M31.84,190.56V176.38h2.75v14c0,5.26,2.82,8.22,7.46,8.22s7.35-2.72,7.35-8V176.38h2.75v14c0,7.11-4.08,10.8-10.17,10.8s-10.14-3.69-10.14-10.59"/><path class="cls-1" d="M64.55,188.64v-.07A12.29,12.29,0,0,1,76.88,176a12.69,12.69,0,0,1,9.51,3.87l-1.88,2a10.6,10.6,0,0,0-7.67-3.34c-5.4,0-9.44,4.39-9.44,10v.07c0,5.64,4.08,10.07,9.44,10.07,3.34,0,5.54-1.29,7.87-3.52l1.81,1.78a12.7,12.7,0,0,1-9.76,4.29c-7,0-12.23-5.54-12.23-12.54"/><polygon class="cls-1" points="98.3 176.38 101.05 176.38 101.05 190.94 115.06 176.38 118.61 176.38 108.16 187.04 119.07 200.76 115.62 200.76 106.25 188.95 101.05 194.22 101.05 200.76 98.3 200.76 98.3 176.38"/><polygon class="cls-1" points="130.31 176.38 147.94 176.38 147.94 178.88 133.06 178.88 133.06 187.21 146.38 187.21 146.38 189.72 133.06 189.72 133.06 198.26 148.12 198.26 148.12 200.76 130.31 200.76 130.31 176.38"/><path class="cls-1" d="M170.86,188.81c3.66,0,6.27-1.88,6.27-5v-.07c0-3-2.3-4.81-6.24-4.81h-7.53v9.89Zm-10.24-12.44h10.49a9.62,9.62,0,0,1,6.93,2.44,6.73,6.73,0,0,1,1.88,4.81v.07c0,4-2.79,6.41-6.62,7.11l7.49,10h-3.38l-7.07-9.48h-7v9.48h-2.75Z"/><polygon class="cls-1" points="192.77 176.38 195.56 176.38 204.44 189.69 213.33 176.38 216.12 176.38 216.12 200.76 213.36 200.76 213.36 181.01 204.48 194.08 204.34 194.08 195.45 181.05 195.45 200.76 192.77 200.76 192.77 176.38"/><path class="cls-1" d="M245.79,191.81l-5.54-12.4-5.57,12.4ZM239,176.2h2.58l11.11,24.56h-3l-2.86-6.45H233.6l-2.89,6.45h-2.82Z"/><polygon class="cls-1" points="282.4 176.38 282.4 195.92 267.04 176.38 264.46 176.38 264.46 200.77 267.14 200.77 267.14 180.77 282.89 200.77 285.08 200.77 285.08 176.38 282.4 176.38"/><path class="cls-1" d="M62.52,235l1.32-1.57a9,9,0,0,0,6.48,2.67c2.54,0,4.21-1.35,4.21-3.21v-.05c0-1.76-.94-2.75-4.91-3.59-4.35-.94-6.35-2.35-6.35-5.45v-.05c0-3,2.62-5.16,6.21-5.16a9.86,9.86,0,0,1,6.64,2.32l-1.24,1.65a8.3,8.3,0,0,0-5.46-2.05c-2.46,0-4,1.35-4,3.05v.05c0,1.78,1,2.78,5.13,3.67s6.16,2.46,6.16,5.35v.05c0,3.24-2.7,5.35-6.45,5.35a11.06,11.06,0,0,1-7.72-3"/><path class="cls-1" d="M93.25,229.11c3.13,0,5.18-1.67,5.18-4.16v-.05c0-2.7-2-4.1-5.08-4.1H88.58v8.32Zm-6.81-10.29h7.07c4.27,0,7.08,2.27,7.08,6v.05c0,4.08-3.4,6.18-7.43,6.18H88.58v6.67H86.45Z"/><path class="cls-1" d="M116,221.17l4.29,9.61h-8.61Zm-1-2.48-8.61,19h2.19l2.24-5H121.1l2.21,5h2.3l-8.61-19Z"/><polygon class="cls-1" points="134.74 218.82 134.74 237.72 148.54 237.72 148.54 235.78 136.87 235.78 136.87 229.16 147.19 229.16 147.19 227.22 136.87 227.22 136.87 220.77 148.4 220.77 148.4 218.82 134.74 218.82"/><path class="cls-1" d="M160.37,220.79v15h4.43c4.78,0,7.83-3.24,7.83-7.43v-.05c0-4.19-3.05-7.48-7.83-7.48Zm-2.13-2h6.56c5.94,0,10,4.08,10,9.4v.05c0,5.32-4.11,9.45-10,9.45h-6.56Z"/><polygon class="cls-1" points="184.76 218.82 184.76 237.72 198.56 237.72 198.56 235.78 186.89 235.78 186.89 229.16 197.21 229.16 197.21 227.22 186.89 227.22 186.89 220.77 198.42 220.77 198.42 218.82 184.76 218.82"/><path class="cls-1" d="M216.19,228.46c2.84,0,4.86-1.46,4.86-3.89v-.05c0-2.32-1.78-3.73-4.83-3.73h-5.83v7.67Zm-7.94-9.64h8.13a7.45,7.45,0,0,1,5.37,1.89,5.22,5.22,0,0,1,1.46,3.73v.05c0,3.13-2.16,5-5.13,5.51l5.81,7.72h-2.62l-5.48-7.34h-5.4v7.34h-2.13Z"/><path class="cls-2" d="M143.63,0a72.63,72.63,0,1,0,72.63,72.63A72.71,72.71,0,0,0,143.63,0Zm0,139.4A66.78,66.78,0,1,1,210.4,72.63,66.85,66.85,0,0,1,143.63,139.4Z"/><path class="cls-2" d="M143.63,11.69a61,61,0,1,0,61,61A61,61,0,0,0,143.63,11.69ZM163,101.74H122.23v-1.66l32.36-51.93H133.15L126,62h-1.8l1.66-15.56h38v1.73l-32.43,51.93h24.2l7.12-14.87h1.8Z"/></svg>