<svg id="Layer_1" data-name="Layer 1" xmlns="http://www.w3.org/2000/svg" viewBox="0 0 1918 223.43"><defs><style>.cls-1{fill:#003a70;}.cls-2{fill:#97999b;}</style></defs><title>AP_RGB</title><path class="cls-1" d="M0,520.78c17.19-.59,20.15-3.26,25.49-17.18,8.29-21.34,19-53.34,29-82.08L87.71,326.1h31.7l60.16,179.27c4.44,13.63,8,14.82,24,15.41v10.37H116.46V520.78l15.7-1.19c7.41-.59,8.6-4.44,6.23-11.85l-17.19-51.85H60.45c-5.63,19-11.55,35.85-15.41,52.44C43.27,515.75,43.56,519,51,519.6l16.89,1.19v10.37H0Zm117-77.93L91.57,363.15h-.89c-3.26,9.48-22.23,69-25.78,79.71Z" transform="translate(0 -311.29)"/><path class="cls-1" d="M210.68,520.78c18.07-.89,20.15-2.07,20.15-15.41V415.89c0-11.26-2.08-13.63-8-14.23l-10.68-1.48V390.7l53.34-8.29,3.56,25.18c18.07-17.78,27.56-25.18,39.11-25.18,12.45,0,18.37,8,18.37,18.07,0,5.34-1.18,11-4.15,15.11-3.26,3.85-7.71,6.52-12.74,6.52-4.15,0-7.7-1.78-11-3.56-7.11-4.15-11.86-6.52-16.6-6.52-7.11,0-12.44,7.11-12.44,25.18v68.15c0,13.33,2.37,14.22,26.37,15.41v10.37H210.68Z" transform="translate(0 -311.29)"/><path class="cls-1" d="M333.65,520.78c18.36-.89,20.15-2.07,20.15-15.41V415.89c0-11.26-2.08-13.33-7.71-14.23l-11-1.48V390.7l53.34-8.29,4.16,21.33c19-11.85,32.88-21.33,51.55-21.33,29.63,0,44.46,17.48,44.46,46.22v76.74c0,13.33,2.07,14.52,20.44,15.41v10.37H431.72V520.78l7.71-.59c8-.6,10.36-2.67,10.36-13.63V433.37c0-20.75-9.47-30.52-26.07-30.52a31.08,31.08,0,0,0-28.15,16.89c-2.37,4.44-3,10.07-3,17.19v69.63c0,11,2.37,13,10.67,13.63l7.41.59v10.37h-77Z" transform="translate(0 -311.29)"/><path class="cls-1" d="M504.32,458.56c0-47.71,22.81-76.15,74.37-76.15,51.85,0,74.67,28.44,74.67,76.15s-22.81,76.15-74.67,76.15C527.13,534.71,504.32,506.26,504.32,458.56Zm107.56,0c0-40-10.08-63.71-33.19-63.71-22.82,0-32.89,23.71-32.89,63.71s10.07,63.71,32.89,63.71C601.8,522.26,611.88,498.56,611.88,458.56Z" transform="translate(0 -311.29)"/><path class="cls-1" d="M710.26,505.37c0,13.33,2.07,14.52,20.44,15.41v10.37H651V520.78c18.37-.89,20.45-2.07,20.45-15.41V344.77c0-11.55-2.08-13.63-8-14.52l-10.68-1.78V319l55.41-7.7,2.08,1.78Z" transform="translate(0 -311.29)"/><path class="cls-1" d="M836.48,515.75c-16,12.74-31.41,19-44.15,19-38.22,0-60.45-29.93-60.45-73.49,0-26.67,8.29-45.93,21.93-59.26,12.74-12.45,32-19.55,56.3-19.55,10.07,0,19.26,1.48,26.38,4.15V344.77c0-11.55-2.08-13.63-8-14.52l-10.67-1.78V319l55.4-7.7,2.08,1.78V505.37c0,13.33,2.07,14.52,20.44,15.41v10.37H837.37l-.89-1.48Zm0-89.49c0-6.82,0-12.45-2.37-17.18-4.15-8-11.86-14.23-24-14.23-21.33,0-36.75,19.86-36.75,61.34,0,36.74,13,58.08,35.26,58.08,13.92,0,22.52-6.22,26.07-16.59a41.31,41.31,0,0,0,1.79-13.33Z" transform="translate(0 -311.29)"/><path class="cls-2" d="M1118.57,533.23l-9.48-.3c-23.7-.89-41.78-5.92-59.56-20.44-16.3,14.52-37.63,22.22-62.52,22.22-36.75,0-67-20.15-66.67-57.48,0-28.75,24.3-44.45,41.78-53.63-8.89-11.56-17.49-26.08-17.49-42.37,0-29.34,21.34-51.56,53.64-51.56,27,0,48.3,16.3,48.3,43,0,24.3-20.15,36.45-41.49,47.12,15.11,17.19,34.07,37.34,56.9,58.67,16-19.26,14.22-48,11-67.56,8.29-7.11,21-10.67,29-9.78,7.11,8.89,8.29,18.08,7.41,27.56-1.78,20.15-20.73,43.86-36.45,59.56,14.52,14.22,34.38,32,46.82,36.74Zm-80-29.93c-27.26-22.52-51.56-48.59-66.67-66.67-5.63,5-13.63,15.41-13.63,32.3,0,27.56,21.34,47.12,45.64,47.12C1017.22,516,1030.56,511.6,1038.56,503.3Zm-43-93.93c11.56-8.59,20.45-21.93,20.45-39.41,0-16.89-8.3-27.85-19.56-27.85-10.67,0-20.14,10.67-20.14,26.67C976.34,383.89,983.75,396.93,995.59,409.37Z" transform="translate(0 -311.29)"/><path class="cls-1" d="M1140.19,520.78c22.81-1.19,24.59-2.07,24.59-17.78V354.26c0-15.71-1.78-16.59-24.59-17.78V326.1h87.7c22.82,0,42.38,2.67,57.19,11.85,13.63,8.3,24.3,24.3,24.3,48,0,27-14.52,43-31.7,52.16-13,6.82-32,10.67-55.11,10.67h-16.89V503c0,15.71,1.78,16.59,29.33,17.78v10.37h-94.82Zm65.48-96.89c0,11.26,3.55,12.45,17.78,12.45,29,0,42.67-21.63,42.67-49.48,0-33.48-17.49-48.3-41.19-48.3-16.6,0-19.26,2.67-19.26,11Z" transform="translate(0 -311.29)"/><path class="cls-1" d="M1304.35,458.56c0-47.71,22.81-76.15,74.37-76.15,51.85,0,74.68,28.44,74.68,76.15s-22.82,76.15-74.68,76.15C1327.16,534.71,1304.35,506.26,1304.35,458.56Zm107.56,0c0-40-10.07-63.71-33.19-63.71-22.81,0-32.89,23.71-32.89,63.71s10.08,63.71,32.89,63.71C1401.84,522.26,1411.91,498.56,1411.91,458.56Z" transform="translate(0 -311.29)"/><path class="cls-1" d="M1453.69,520.78c18.07-.89,20.15-2.07,20.15-15.41V415.89c0-11.26-2.08-13.63-8-14.23l-10.67-1.48V390.7l53.34-8.29,3.55,25.18c18.08-17.78,27.57-25.18,39.12-25.18,12.44,0,18.37,8,18.37,18.07,0,5.34-1.19,11-4.16,15.11-3.26,3.85-7.7,6.52-12.73,6.52-4.15,0-7.71-1.78-11-3.56-7.11-4.15-11.86-6.52-16.59-6.52-7.11,0-12.45,7.11-12.45,25.18v68.15c0,13.33,2.37,14.22,26.38,15.41v10.37h-85.34Z" transform="translate(0 -311.29)"/><path class="cls-1" d="M1667.62,399.59h-33.19v87.12c0,20.15,8.29,28.15,19,28.15a50.73,50.73,0,0,0,18.36-3.26l3,8c-13.63,8.6-30.52,15.11-43.85,15.11-14.23,0-35.26-8.59-35.26-36.74V399.59h-18.67V386h19.86l23.41-37.33h14.22V386h33.19Z" transform="translate(0 -311.29)"/><path class="cls-1" d="M1799.78,492c-9.48,25.18-27.85,42.67-62.23,42.67-51.85.3-71.41-32.89-71.41-75.86,0-20.74,5.33-40,17.18-53.93s29.63-22.52,53.93-22.52c60.45,0,64.6,44.15,64.6,60.74,0,9.78-5.34,12.15-14.52,12.15h-79.71c0,31.11,8.89,59.56,41.19,59.56,20.15,0,32.3-11.26,40.89-28.45Zm-48.59-49.78c7.41,0,9.48-2.07,9.48-9.78,0-13-3-37.64-24.3-37.64-23.41,0-28.45,29.34-28.45,47.41Z" transform="translate(0 -311.29)"/><path class="cls-1" d="M1802.15,520.78c18.07-.89,20.15-2.07,20.15-15.41V415.89c0-11.26-2.08-13.63-8-14.23l-10.68-1.48V390.7l53.34-8.29,3.56,25.18c18.07-17.78,27.56-25.18,39.11-25.18,12.45,0,18.37,8,18.37,18.07,0,5.34-1.18,11-4.15,15.11-3.26,3.85-7.71,6.52-12.74,6.52-4.15,0-7.7-1.78-11-3.56-7.11-4.15-11.86-6.52-16.6-6.52-7.11,0-12.44,7.11-12.44,25.18v68.15c0,13.33,2.37,14.22,26.37,15.41v10.37h-85.33Z" transform="translate(0 -311.29)"/></svg>