<svg width="218" height="60" xmlns="http://www.w3.org/2000/svg"><g fill="none" fill-rule="evenodd"><g class="site-header__logo__whiteText" fill="#21292c"><path d="M52.192 52.45c-1.626 0-3.083-.272-4.37-.818a9.82 9.82 0 0 1-3.357-2.334c-.993-1.07-1.747-2.331-2.264-3.78-.52-1.452-.775-3.04-.775-4.761 0-1.787.289-3.431.87-4.934.58-1.502 1.407-2.79 2.486-3.863a10.13 10.13 0 0 1 3.355-2.206c1.288-.524 2.757-.786 4.404-.786 1.455 0 2.764.184 3.924.55 1.161.368 2.164.894 3.01 1.578a8 8 0 0 1 2.043 2.472c.517.967.87 2.039 1.061 3.217h-5.447a4.088 4.088 0 0 0-1.427-2.302c-.737-.609-1.73-.915-2.975-.915-.93 0-1.748.186-2.454.551a4.976 4.976 0 0 0-1.758 1.515c-.465.642-.812 1.398-1.045 2.269-.233.873-.35 1.824-.35 2.854 0 1.029.133 1.986.397 2.869.264.88.639 1.642 1.125 2.283a5.055 5.055 0 0 0 1.789 1.497c.708.359 1.504.538 2.39.538.74 0 1.4-.113 1.979-.331a4.743 4.743 0 0 0 1.49-.883c.41-.368.738-.788.981-1.261.242-.473.396-.962.46-1.467v-.062H53.49v-4.098h9.436v12.104H59l-.317-2.71h-.065c-.737 1.156-1.652 1.98-2.738 2.474-1.088.495-2.317.74-3.69.74M71.224 52.42c-1.88 0-3.3-.551-4.259-1.655-.961-1.102-1.442-2.558-1.442-4.365V35.808h5.13v9.52c0 .881.201 1.559.602 2.032.401.473 1.014.71 1.838.71.886 0 1.583-.299 2.088-.9.508-.598.761-1.38.761-2.348v-9.014h5.163v16.138h-4.94v-1.985h-.097c-.59.799-1.261 1.408-2.011 1.827-.749.42-1.693.631-2.833.631"/></g><path d="M85.02 33.864h5.45v-4.41h-5.45v4.41zm0 18.5h5.45V36.119h-5.45v16.245z" class="site-header__logo__whiteText" fill="#21292c"/><g class="site-header__logo__whiteText" fill="#21292c"><path d="M99.534 52.451c-1.038 0-1.991-.196-2.859-.583a6.413 6.413 0 0 1-2.257-1.686c-.635-.735-1.126-1.634-1.477-2.695-.349-1.063-.522-2.266-.522-3.61 0-1.261.173-2.417.522-3.467.35-1.05.837-1.948 1.462-2.696a6.696 6.696 0 0 1 2.24-1.749c.868-.419 1.833-.63 2.89-.63 1.145 0 2.066.215 2.766.645.698.43 1.291.983 1.78 1.656h.093v-8.45h5.18v22.76h-4.958v-2.175h-.062a5.291 5.291 0 0 1-1.956 1.97c-.814.473-1.762.71-2.842.71m1.334-4.066c1.08 0 1.923-.42 2.526-1.262.603-.84.905-1.922.905-3.247a8.06 8.06 0 0 0-.206-1.874c-.137-.578-.35-1.073-.634-1.482a3.154 3.154 0 0 0-1.049-.962c-.414-.232-.907-.347-1.478-.347-1.038 0-1.842.426-2.415 1.278-.571.85-.858 1.958-.858 3.326 0 1.406.282 2.52.843 3.34.56.82 1.35 1.23 2.366 1.23M119.93 52.419c-1.334 0-2.542-.216-3.621-.645-1.081-.43-1.992-1.031-2.734-1.798a7.972 7.972 0 0 1-1.715-2.724c-.402-1.053-.604-2.187-.604-3.405 0-1.2.202-2.319.604-3.359a8.004 8.004 0 0 1 1.715-2.71 7.895 7.895 0 0 1 2.638-1.796c1.017-.432 2.15-.646 3.398-.646 1.165 0 2.21.177 3.13.534.923.357 1.733.85 2.431 1.482.975.882 1.7 2.001 2.176 3.358.477 1.354.703 2.852.683 4.49h-11.69c.169 1.093.55 1.956 1.143 2.586.594.631 1.43.945 2.51.945.678 0 1.238-.142 1.683-.427a2.688 2.688 0 0 0 1.016-1.182h5.052a5.953 5.953 0 0 1-.952 2.098 6.706 6.706 0 0 1-1.779 1.717 7.738 7.738 0 0 1-2.272 1.104c-.836.253-1.774.378-2.812.378zm2.859-10.276c-.107-.967-.434-1.734-.984-2.3-.553-.57-1.25-.853-2.098-.853-.996 0-1.756.284-2.287.852-.53.567-.877 1.334-1.048 2.301h6.417zM129.938 29.187h5.177v8.605h.096c.593-.776 1.26-1.381 2.002-1.811.742-.43 1.684-.645 2.827-.645.89 0 1.684.15 2.384.455a5.213 5.213 0 0 1 1.78 1.261 5.436 5.436 0 0 1 1.11 1.922c.254.748.382 1.573.382 2.477v10.496h-5.178v-9.456c0-.864-.212-1.556-.636-2.08-.425-.527-1.06-.788-1.907-.788-.868 0-1.561.313-2.08.944-.52.63-.78 1.452-.78 2.458v8.922h-5.177v-22.76zM156.021 52.45c-1.315 0-2.506-.213-3.574-.645a8.048 8.048 0 0 1-2.75-1.797 7.969 7.969 0 0 1-1.762-2.71c-.413-1.042-.62-2.17-.62-3.39 0-1.219.207-2.349.62-3.388.414-1.04 1-1.943 1.763-2.71a8.084 8.084 0 0 1 2.749-1.797c1.068-.432 2.259-.646 3.574-.646 1.312 0 2.505.214 3.574.646 1.069.431 1.98 1.03 2.732 1.796a8.082 8.082 0 0 1 1.747 2.711c.413 1.04.62 2.17.62 3.389 0 1.22-.207 2.347-.62 3.39a8.064 8.064 0 0 1-1.747 2.71c-.753.767-1.663 1.366-2.732 1.796-1.07.432-2.262.645-3.574.645m-.032-3.656c1.145 0 2.006-.447 2.59-1.34.58-.892.874-2.074.874-3.545 0-1.472-.294-2.66-.874-3.563-.584-.905-1.445-1.355-2.59-1.355-1.144 0-2.001.45-2.573 1.355-.572.903-.858 2.091-.858 3.563 0 1.471.286 2.653.858 3.545.572.893 1.43 1.34 2.573 1.34M172.033 52.42c-1.886 0-3.31-.551-4.273-1.655-.965-1.102-1.446-2.558-1.446-4.365V35.808h5.146v9.52c0 .881.202 1.559.604 2.032.402.473 1.017.71 1.844.71.89 0 1.588-.299 2.096-.9.508-.598.763-1.38.763-2.348v-9.014h5.179v16.138h-4.957v-1.985h-.096c-.593.799-1.266 1.408-2.018 1.827-.751.42-1.698.631-2.842.631M191.666 52.45c-2.393 0-4.287-.509-5.686-1.528-1.4-1.018-2.139-2.42-2.225-4.209h4.894c.105.8.413 1.398.921 1.798.508.4 1.196.599 2.065.599.784 0 1.4-.136 1.857-.41.457-.272.684-.67.684-1.199 0-.357-.116-.646-.349-.865-.234-.222-.54-.4-.922-.537-.38-.137-.82-.241-1.318-.314a35.745 35.745 0 0 1-1.542-.267c-.698-.13-1.396-.28-2.096-.46a6.377 6.377 0 0 1-1.89-.802 3.994 3.994 0 0 1-1.35-1.435c-.34-.6-.51-1.372-.51-2.316 0-.84.187-1.586.557-2.24a4.827 4.827 0 0 1 1.51-1.623c.635-.43 1.382-.755 2.24-.976a10.796 10.796 0 0 1 2.717-.331c2.306 0 4.075.461 5.304 1.386 1.229.925 1.906 2.188 2.034 3.784h-4.765c-.107-.737-.387-1.236-.843-1.498-.455-.263-1.043-.394-1.763-.394-.636 0-1.171.12-1.604.362-.436.242-.653.615-.653 1.12 0 .293.106.525.318.693.213.167.499.31.859.427.36.115.779.213 1.255.297.476.085.968.17 1.476.253.72.126 1.448.279 2.177.456.731.18 1.397.458 2.002.837a4.477 4.477 0 0 1 1.478 1.528c.38.643.57 1.478.57 2.506 0 .882-.186 1.66-.556 2.332a4.747 4.747 0 0 1-1.539 1.67c-.659.443-1.443.78-2.353 1.01-.91.231-1.895.346-2.954.346M209.171 52.419c-1.334 0-2.541-.216-3.62-.645-1.082-.43-1.992-1.031-2.735-1.798a7.953 7.953 0 0 1-1.714-2.724c-.402-1.053-.604-2.187-.604-3.405 0-1.2.202-2.319.604-3.359a7.984 7.984 0 0 1 1.714-2.71 7.895 7.895 0 0 1 2.638-1.796c1.017-.432 2.15-.646 3.399-.646 1.164 0 2.209.177 3.13.534a7.8 7.8 0 0 1 2.43 1.482c.975.882 1.7 2.001 2.177 3.358.476 1.354.703 2.852.682 4.49H205.58c.17 1.093.552 1.956 1.145 2.586.594.631 1.43.945 2.51.945.677 0 1.239-.142 1.684-.427a2.688 2.688 0 0 0 1.015-1.182h5.053a5.914 5.914 0 0 1-.955 2.098 6.681 6.681 0 0 1-1.778 1.717 7.731 7.731 0 0 1-2.27 1.104c-.839.253-1.776.378-2.813.378zm2.86-10.276c-.107-.967-.435-1.734-.985-2.3-.552-.57-1.25-.853-2.097-.853-.997 0-1.759.284-2.288.852-.53.567-.88 1.334-1.048 2.301h6.417z"/></g><path class="site-header__logo__whiteText site-header__logo__glyphTop" fill="#ffde2f" d="M24.35 0L0 20.593l18.162 7.77L42.51 7.772 24.353 0z"/><path class="site-header__logo__glyphBottom" fill="#21292c" d="M0 52.314L18.495 60l.035-31.59L.032 20.727z"/></g></svg>