<?xml version="1.0" encoding="UTF-8"?>
<svg viewBox="0 0 647 83" version="1.1" xmlns="http://www.w3.org/2000/svg" xmlns:xlink="http://www.w3.org/1999/xlink">
    <!-- Generator: Sketch 47 (45396) - http://www.bohemiancoding.com/sketch -->
    <title>Group</title>
    <desc>Created with Sketch.</desc>
    <defs></defs>
    <g id="patterns" stroke="none" stroke-width="1" fill="none" fill-rule="evenodd">
        <g id="interface/logo" transform="translate(-7.000000, -8.000000)">
            <g id="Group" transform="translate(7.000000, 8.000000)">
                <path d="M0.92,2.46 L34.14,2.46 C37.4400165,2.46 40.6116515,2.77166355 43.655,3.395 C46.6983486,4.01833645 49.3749885,5.08165915 51.685,6.585 C53.9950116,8.08834085 55.8466597,10.068321 57.24,12.525 C58.6333403,14.9816789 59.33,18.043315 59.33,21.71 C59.33,23.7633436 59.0000033,25.7616569 58.34,27.705 C57.6799967,29.648343 56.7450061,31.4083254 55.535,32.985 C54.324994,34.5616745 52.8950083,35.8999945 51.245,37 C49.5949918,38.1000055 47.7433436,38.8699978 45.69,39.31 L45.69,39.53 C50.7500253,40.1900033 54.7833183,42.2616492 57.79,45.745 C60.7966817,49.2283507 62.3,53.536641 62.3,58.67 C62.3,59.9166729 62.1900011,61.3283254 61.97,62.905 C61.7499989,64.4816745 61.3100033,66.0949917 60.65,67.745 C59.9899967,69.3950082 59.0366729,71.0266586 57.79,72.64 C56.5433271,74.2533414 54.8750105,75.6649939 52.785,76.875 C50.6949896,78.085006 48.1283486,79.0749961 45.085,79.845 C42.0416515,80.6150038 38.3933546,81 34.14,81 L0.92,81 L0.92,2.46 Z M8.4,36.89 L34.14,36.89 C37.1466817,36.89 39.749989,36.5416702 41.95,35.845 C44.150011,35.1483299 45.983326,34.1950061 47.45,32.985 C48.916674,31.774994 50.016663,30.3633414 50.75,28.75 C51.483337,27.1366586 51.85,25.4133425 51.85,23.58 C51.85,13.7532842 45.9467257,8.84 34.14,8.84 L8.4,8.84 L8.4,36.89 Z M8.4,74.62 L34.14,74.62 C36.9266806,74.62 39.5666542,74.381669 42.06,73.905 C44.5533458,73.4283309 46.7533238,72.5666729 48.66,71.32 C50.5666762,70.0733271 52.0699945,68.4050104 53.17,66.315 C54.2700055,64.2249895 54.82,61.6033491 54.82,58.45 C54.82,53.3899747 53.0416844,49.5950126 49.485,47.065 C45.9283155,44.5349873 40.8133667,43.27 34.14,43.27 L8.4,43.27 L8.4,74.62 Z" id="Combined-Shape" fill="#56565B"></path>
                <path d="M161.63,2.46 L169.99,2.46 L200.79,81 L192.76,81 L183.19,56.58 L147.44,56.58 L137.98,81 L130.06,81 L161.63,2.46 Z M149.75,50.2 L180.66,50.2 L165.48,9.94 L149.75,50.2 Z" id="Combined-Shape" fill="#56565B"></path>
                <path d="M421.01,41.73 C421.01,36.3033062 421.779992,31.1333579 423.32,26.22 C424.860008,21.3066421 427.169985,16.9616855 430.25,13.185 C433.330015,9.40831445 437.19831,6.40167785 441.855,4.165 C446.51169,1.92832215 451.919969,0.81 458.08,0.81 C464.240031,0.81 469.629977,1.92832215 474.25,4.165 C478.870023,6.40167785 482.719985,9.40831445 485.8,13.185 C488.880015,16.9616855 491.189992,21.3066421 492.73,26.22 C494.270008,31.1333579 495.04,36.3033062 495.04,41.73 C495.04,47.1566938 494.270008,52.3266421 492.73,57.24 C491.189992,62.1533579 488.880015,66.4799813 485.8,70.22 C482.719985,73.9600187 478.870023,76.9483221 474.25,79.185 C469.629977,81.4216779 464.240031,82.54 458.08,82.54 C451.919969,82.54 446.51169,81.4216779 441.855,79.185 C437.19831,76.9483221 433.330015,73.9600187 430.25,70.22 C427.169985,66.4799813 424.860008,62.1533579 423.32,57.24 C421.779992,52.3266421 421.01,47.1566938 421.01,41.73 Z M428.49,41.73 C428.49,45.9833546 429.058328,50.181646 430.195,54.325 C431.331672,58.4683541 433.091655,62.1716503 435.475,65.435 C437.858345,68.6983496 440.919981,71.3199901 444.66,73.3 C448.400019,75.2800099 452.873307,76.27 458.08,76.27 C463.286693,76.27 467.741648,75.2800099 471.445,73.3 C475.148352,71.3199901 478.191655,68.6983496 480.575,65.435 C482.958345,62.1716503 484.718328,58.4683541 485.855,54.325 C486.991672,50.181646 487.56,45.9833546 487.56,41.73 C487.56,37.4033117 486.991672,33.1866872 485.855,29.08 C484.718328,24.9733128 482.958345,21.2883497 480.575,18.025 C478.191655,14.7616503 475.148352,12.1400099 471.445,10.16 C467.741648,8.1799901 463.286693,7.19 458.08,7.19 C452.873307,7.19 448.400019,8.1799901 444.66,10.16 C440.919981,12.1400099 437.858345,14.7616503 435.475,18.025 C433.091655,21.2883497 431.331672,24.9733128 430.195,29.08 C429.058328,33.1866872 428.49,37.4033117 428.49,41.73 Z" id="Combined-Shape" fill="#CE2029"></path>
                <path d="M353.28,2.46 L389.25,2.46 C392.476683,2.46 395.538319,2.8633293 398.435,3.67 C401.331681,4.4766707 403.861656,5.70499175 406.025,7.355 C408.188344,9.00500825 409.91166,11.1316536 411.195,13.735 C412.47834,16.3383463 413.12,19.3999824 413.12,22.92 C413.12,27.9066916 411.83668,32.233315 409.27,35.9 C406.703321,39.566685 402.890025,41.9133282 397.83,42.94 L397.83,43.16 C400.39668,43.5266685 402.523325,44.204995 404.21,45.195 C405.896675,46.1850049 407.271661,47.4499923 408.335,48.99 C409.398339,50.5300077 410.168331,52.3083232 410.645,54.325 C411.121669,56.3416767 411.433333,58.5233216 411.58,60.87 C411.653334,62.1900066 411.726666,63.8033238 411.8,65.71 C411.873334,67.6166762 412.019999,69.5416569 412.24,71.485 C412.460001,73.428343 412.808331,75.261658 413.285,76.985 C413.761669,78.7083419 414.403329,80.0466619 415.21,81 L406.96,81 C406.519998,80.266663 406.171668,79.3683386 405.915,78.305 C405.658332,77.2416613 405.475001,76.1416723 405.365,75.005 C405.254999,73.8683276 405.163334,72.7500055 405.09,71.65 C405.016666,70.5499945 404.943334,69.5966707 404.87,68.79 C404.723333,66.0033194 404.485002,63.2350137 404.155,60.485 C403.824998,57.7349862 403.128339,55.2783441 402.065,53.115 C401.001661,50.9516558 399.461677,49.2100066 397.445,47.89 C395.428323,46.5699934 392.660018,45.9833326 389.14,46.13 L360.76,46.13 L360.76,81 L353.28,81 L353.28,2.46 Z M360.76,39.75 L388.7,39.75 C390.973345,39.75 393.136656,39.4016702 395.19,38.705 C397.243344,38.0083299 399.039992,37.0000066 400.58,35.68 C402.120008,34.3599934 403.348329,32.7650094 404.265,30.895 C405.181671,29.0249907 405.64,26.8800121 405.64,24.46 C405.64,19.6199758 404.246681,15.8066806 401.46,13.02 C398.673319,10.2333194 394.420029,8.84 388.7,8.84 L360.76,8.84 L360.76,39.75 Z" id="Combined-Shape" fill="#CE2029"></path>
                <polygon id="Path" fill="#56565B" points="74.83 2.46 74.83 81 126.31 81 126.31 74.62 82.31 74.62 82.31 2.46"></polygon>
                <polygon id="Path" fill="#56565B" points="207.37 2.46 207.37 81 214.85 81 214.85 14.56 215.07 14.56 260.83 81 269.19 81 269.19 2.46 261.71 2.46 261.71 68.9 261.49 68.9 215.73 2.46"></polygon>
                <polygon id="Path" fill="#56565B" points="283.46 2.46 283.46 81 290.94 81 290.94 54.05 306.01 40.08 338.68 81 348.36 81 311.62 34.91 346.71 2.46 336.59 2.46 290.94 44.7 290.94 2.46"></polygon>
                <polygon id="Path" fill="#CE2029" points="515.32 2.46 541.39 71.32 568.45 2.46 579.45 2.46 579.45 81 571.97 81 571.97 13.13 544.91 81 537.87 81 512.02 13.13 511.8 81 504.32 81 504.32 2.46"></polygon>
                <polygon id="Path" fill="#CE2029" points="591.59 2.46 591.59 81 646.37 81 646.37 74.62 599.07 74.62 599.07 43.6 642.85 43.6 642.85 37.22 599.07 37.22 599.07 8.84 645.82 8.84 645.82 2.46"></polygon>
            </g>
        </g>
    </g>
</svg>