<?xml version="1.0" encoding="utf-8"?>
<!-- Generator: Adobe Illustrator 19.1.0, SVG Export Plug-In . SVG Version: 6.00 Build 0)  -->
<svg version="1.1" id="Layer_1" xmlns="http://www.w3.org/2000/svg" xmlns:xlink="http://www.w3.org/1999/xlink" x="0px" y="0px"
     viewBox="0 0 118.8 31.9" style="enable-background:new 0 0 118.8 31.9;" xml:space="preserve" fill="#ccc6af">
<style type="text/css">
    .Arched_x0020_Green{fill:url(#SVGID_1_);stroke:#ccc6af;stroke-width:0.25;stroke-miterlimit:1;}
</style>
<linearGradient id="SVGID_1_" gradientUnits="userSpaceOnUse" x1="-794.75" y1="-228.5" x2="-794.0429" y2="-229.2071">
    <stop offset="0" style="stop-color:#ccc6af"/>
    <stop offset="0.9831" style="stop-color:#ccc6af"/>
</linearGradient>
<g>
    <g>
        <rect x="30.3" y="0.5" width="3.8" height="3"/>
    </g>
    <g>
        <path d="M115.6,26h-1.8v5.4h0.7V29h1c1,0,1.9-0.4,1.9-1.5C117.5,26.3,116.6,26,115.6,26z M115.7,28.4h-1.2v-1.7h1.2
            c0.1,0,1,0,1,0.9C116.7,28.4,115.8,28.4,115.7,28.4z"/>
        <path d="M114.7,31.5h-1v-5.7h1.9c0.7,0,1.2,0.1,1.6,0.5c0.3,0.3,0.4,0.7,0.4,1.2c0,1-0.7,1.6-2,1.6h-0.9V31.5z M114,31.2h0.4v-2.4
            h1.2c0.8,0,1.7-0.3,1.7-1.3c0-0.4-0.1-0.7-0.4-1c-0.4-0.3-0.9-0.4-1.3-0.4H114V31.2z M115.7,28.5
            C115.7,28.5,115.7,28.5,115.7,28.5l0-0.2L115.7,28.5l-1.3,0v-2h1.3c0,0,0,0,0,0c0.4,0,0.7,0.2,0.8,0.3c0.2,0.2,0.3,0.4,0.3,0.7
            c0,0.3-0.1,0.6-0.3,0.7C116.4,28.4,116.2,28.5,115.7,28.5z M114.7,28.2h1c0,0,0,0,0,0c0.3,0,0.5-0.1,0.6-0.2
            c0.1-0.1,0.2-0.3,0.2-0.5c0-0.2-0.1-0.4-0.2-0.5c-0.1-0.1-0.3-0.2-0.6-0.2h-1V28.2z"/>
    </g>
    <g>
        <polygon points="112.5,31.4 112.5,30.7 110,30.7 110,26 109.3,26 109.3,31.4      "/>
        <path d="M112.7,31.5h-3.5v-5.7h1v4.7h2.5V31.5z M109.4,31.2h2.9v-0.3h-2.5v-4.7h-0.4V31.2z"/>
    </g>
    <g>
        <polygon points="108,31.4 108,30.7 105.5,30.7 105.5,26 104.7,26 104.7,31.4      "/>
        <path d="M108.1,31.5h-3.5v-5.7h1v4.7h2.5V31.5z M104.9,31.2h2.9v-0.3h-2.5v-4.7h-0.4V31.2z"/>
    </g>
    <g>
        <path d="M99.4,26.3C99,26.1,98.5,26,98,26h-1.8v5.4H98c0.5,0,1-0.1,1.5-0.3c0.8-0.5,1.1-1.3,1.1-2.4
            C100.6,27.7,100.2,26.8,99.4,26.3z M99.4,30.1c-0.2,0.3-0.6,0.6-1.4,0.6h-1.1v-4.1H98c0.8,0,1.2,0.3,1.4,0.6
            c0.3,0.5,0.4,0.9,0.4,1.4C99.8,29.2,99.7,29.7,99.4,30.1z"/>
        <path d="M96.2,31.5h-0.2v-5.7H98c0.5,0,1.1,0.1,1.5,0.3l0,0c0.8,0.5,1.2,1.4,1.2,2.5c0,1.1-0.4,2-1.2,2.5c-0.5,0.3-1,0.3-1.5,0.3
            H96.2z M96.4,31.2H98c0.5,0,1,0,1.4-0.3c0.7-0.4,1.1-1.2,1.1-2.2c0-1-0.4-1.8-1.1-2.2l0,0c-0.4-0.3-0.9-0.3-1.4-0.3h-1.6V31.2z
             M98,30.9h-1.2v-4.4H98c0.8,0,1.3,0.4,1.5,0.7c0.3,0.4,0.4,0.9,0.4,1.5c0,0.6-0.1,1.1-0.4,1.5l0,0C99.3,30.5,98.9,30.9,98,30.9z
             M97.1,30.6H98c0.6,0,1-0.2,1.2-0.5v0c0.3-0.4,0.4-0.8,0.4-1.3c0-0.6-0.1-1-0.4-1.3C99,27,98.6,26.8,98,26.8h-0.9V30.6z"/>
    </g>
    <g>
        <polygon points="94.9,31.4 94.9,30.7 92.4,30.7 92.4,26 91.7,26 91.7,31.4        "/>
        <path d="M95.1,31.5h-3.5v-5.7h1v4.7h2.5V31.5z M91.8,31.2h2.9v-0.3h-2.5v-4.7h-0.4V31.2z"/>
    </g>
    <g>
        <polygon points="90,31.4 90,30.7 87.3,30.7 87.3,29 89.8,29 89.8,28.3 87.3,28.3 87.3,26.7 89.9,26.7 89.9,26 86.5,26 86.5,31.4 
                    "/>
        <path d="M90.1,31.5h-3.7v-5.7h3.7v0.9h-2.6v1.4h2.5v0.9h-2.5v1.5h2.7V31.5z M86.7,31.2h3.1v-0.3h-2.7v-2.1h2.5v-0.3h-2.5v-2h2.6
            v-0.3h-3.1V31.2z"/>
    </g>
    <g>
        <polygon points="82.7,31.4 82.7,29 85,29 85,28.3 82.7,28.3 82.7,26.7 85.1,26.7 85.1,26 81.9,26 81.9,31.4        "/>
        <path d="M82.8,31.5h-1v-5.7h3.5v0.9h-2.4v1.4h2.3v0.9h-2.3V31.5z M82.1,31.2h0.4v-2.4h2.3v-0.3h-2.3v-2H85v-0.3h-2.9V31.2z"/>
    </g>
    <g>
        <path d="M77,30.1c0.5-0.6,0.6-1.5,0.7-2.2h-0.8c0,0.6-0.1,1.2-0.4,1.8l-1.3-1.3c0.5-0.3,1-0.8,1-1.3c0-0.9-0.7-1.1-1.4-1.1
            c-0.7,0-1.4,0.3-1.4,1.1c0,0.5,0.3,0.9,0.6,1.2c-0.6,0.4-1.1,0.9-1.1,1.7c0,0.9,0.8,1.5,1.7,1.5c0.8,0,1.4-0.2,2-0.8l0.7,0.7h1.1
            l0,0L77,30.1z M74.8,26.5c0.3,0,0.7,0.2,0.7,0.5c0,0.3-0.4,0.6-0.7,0.8c-0.2-0.2-0.6-0.5-0.6-0.8C74.2,26.8,74.5,26.5,74.8,26.5z
             M74.8,30.8c-0.6,0-1.1-0.3-1.1-0.9c0-0.6,0.4-0.9,0.8-1.2l1.6,1.5C75.7,30.6,75.3,30.8,74.8,30.8z"/>
        <path d="M74.5,31.6c-0.9,0-1.8-0.6-1.8-1.7c0-0.9,0.5-1.3,1.1-1.7c-0.4-0.4-0.5-0.8-0.5-1.2c0-0.8,0.6-1.3,1.6-1.3
            c1,0,1.6,0.5,1.6,1.3c0,0.6-0.6,1.1-1,1.3l1,1c0.2-0.4,0.3-0.9,0.2-1.5l0-0.2h1.1l0,0.2c0,0.7-0.1,1.5-0.6,2.2l1.3,1.2l-0.1,0.2
            l-0.1,0h-1.1l-0.6-0.6C76,31.4,75.4,31.6,74.5,31.6z M74.8,26.1c-0.3,0-1.3,0.1-1.3,1c0,0.4,0.2,0.7,0.6,1.1l0.1,0.1l-0.1,0.1
            C73.4,28.9,73,29.3,73,30c0,0.9,0.8,1.4,1.5,1.4c0.8,0,1.3-0.2,1.9-0.7l0.1-0.1l0.7,0.7h0.7l-1.1-1.1l0.1-0.1
            c0.5-0.6,0.6-1.3,0.6-2H77c0,0.6-0.1,1.2-0.4,1.7l-0.1,0.2L75,28.4l0.2-0.1c0.6-0.4,1-0.8,1-1.2C76.1,26.2,75.3,26.1,74.8,26.1z
             M74.8,31c-0.6,0-1.3-0.3-1.3-1c0-0.7,0.4-1,0.9-1.4l0.1-0.1l1.8,1.7l-0.1,0.1C75.7,30.8,75.3,31,74.8,31z M74.5,28.9
            c-0.4,0.3-0.7,0.6-0.7,1c0,0.5,0.5,0.7,1,0.7c0.4,0,0.7-0.1,1-0.4L74.5,28.9z M74.7,28.1L74.6,28c-0.3-0.3-0.6-0.6-0.6-0.9
            c0-0.4,0.4-0.7,0.8-0.7c0.4,0,0.8,0.2,0.8,0.7c0,0.3-0.3,0.6-0.8,1L74.7,28.1z M74.8,26.7c-0.2,0-0.5,0.2-0.5,0.4
            c0,0.2,0.3,0.4,0.4,0.6c0.5-0.4,0.6-0.6,0.6-0.6C75.3,26.8,75,26.7,74.8,26.7z"/>
    </g>
    <g>
        <path d="M68.6,29.8c-0.1-0.6-0.2-0.9-0.8-1.1v0c0.6-0.1,1-0.6,1-1.3c0-1.1-0.9-1.3-1.8-1.3h-1.9v5.4h0.7V29h1c0.3,0,0.6,0,0.8,0.2
            c0.2,0.3,0.2,0.7,0.3,1.2c0,0.3,0.1,0.7,0.2,1h0.8C68.7,30.9,68.7,30.3,68.6,29.8z M67,28.3h-1.2v-1.7H67c0.8,0,1,0.4,1,0.8
            C68,27.9,67.8,28.3,67,28.3z"/>
        <path d="M69.2,31.5H68l-0.1-0.4c-0.1-0.2-0.1-0.5-0.1-0.7c0-0.1,0-0.2,0-0.2c0-0.4-0.1-0.7-0.2-0.9c-0.1-0.2-0.3-0.2-0.6-0.2
            l-0.1,0l-0.9,0v2.4h-1v-5.7H67c1.3,0,2,0.5,2,1.5c0,0.6-0.3,1.1-0.7,1.3c0.4,0.2,0.5,0.6,0.6,1.1l0,0.2c0.1,0.5,0.1,0.9,0.3,1.3
            L69.2,31.5z M68.3,31.2h0.5c-0.1-0.4-0.2-0.8-0.2-1.2l0-0.2c-0.1-0.6-0.2-0.8-0.7-1l-0.1,0v-0.2l0.1,0c0.5-0.1,0.9-0.6,0.9-1.1
            c0-1-0.9-1.2-1.7-1.2h-1.8v5.1h0.4v-2.4l1.3,0c0.3,0,0.6,0,0.8,0.3c0.2,0.3,0.3,0.6,0.3,1c0,0.1,0,0.2,0,0.2
            c0,0.2,0.1,0.5,0.1,0.7L68.3,31.2z M67,28.5h-1.4v-2H67c0.8,0,1.2,0.4,1.2,1C68.2,28.1,67.8,28.4,67,28.5L67,28.5z M65.9,28.2H67
            c0.8,0,0.9-0.4,0.9-0.7c0-0.3-0.1-0.6-0.9-0.7h-1.1V28.2z"/>
    </g>
    <g>
        <polygon points="63.3,31.4 63.3,30.7 60.7,30.7 60.7,29 63.2,29 63.2,28.3 60.7,28.3 60.7,26.7 63.3,26.7 63.3,26 59.9,26 
            59.9,31.4       "/>
        <path d="M63.5,31.5h-3.7v-5.7h3.7v0.9h-2.6v1.4h2.5v0.9h-2.5v1.5h2.7V31.5z M60.1,31.2h3.1v-0.3h-2.7v-2.1H63v-0.3h-2.5v-2h2.6
            v-0.3h-3.1V31.2z"/>
    </g>
    <g>
        <path d="M58,26h-0.7v3.4c0,0.9-0.6,1.4-1.4,1.4c-0.8,0-1.4-0.5-1.4-1.4V26h-0.7v3.2c0,1.4,0.7,2.2,2.2,2.2c1.5,0,2.2-0.9,2.2-2.2
            V26z"/>
        <path d="M55.9,31.6c-0.7,0-1.3-0.2-1.7-0.6c-0.4-0.4-0.6-1-0.6-1.8v-3.4h1v3.6c0,0.8,0.5,1.3,1.3,1.3c0.8,0,1.2-0.5,1.3-1.3v-3.6
            h1v3.4c0,0.8-0.2,1.4-0.6,1.8C57.2,31.4,56.6,31.6,55.9,31.6z M53.8,26.2v3.1c0,0.7,0.2,1.2,0.5,1.6c0.3,0.3,0.8,0.5,1.5,0.5
            s1.2-0.2,1.5-0.5c0.3-0.4,0.5-0.9,0.5-1.6v-3.1h-0.4v3.3c0,1-0.6,1.6-1.6,1.6c-1,0-1.5-0.6-1.6-1.6v-3.3H53.8z"/>
    </g>
    <g>
        <path d="M50.4,26h-0.8l-2.3,5.4h0.8l0.6-1.4h2.5l0.6,1.4h0.8L50.4,26z M49,29.3l1-2.6l1,2.6H49z"/>
        <path d="M52.8,31.5h-1.1l-0.6-1.4h-2.3l-0.6,1.4h-1.1l2.4-5.7h1l0,0.1L52.8,31.5z M51.9,31.2h0.5l-2-5.1h-0.6l-2.1,5.1H48l0.6-1.4
            h2.7L51.9,31.2z M51.2,29.5h-2.4l1.2-3.2L51.2,29.5z M49.2,29.2h1.6l-0.8-2L49.2,29.2z"/>
    </g>
    <g>
        <polygon points="42.9,31.4 42.9,29 45.5,29 45.5,31.4 46.2,31.4 46.2,26 45.5,26 45.5,28.3 42.9,28.3 42.9,26 42.2,26 42.2,31.4 
                    "/>
        <path d="M46.4,31.5h-1v-2.4h-2.2v2.4h-1v-5.7h1v2.3h2.2v-2.3h1V31.5z M45.6,31.2h0.4v-5.1h-0.4v2.3h-2.8v-2.3h-0.4v5.1h0.4v-2.4
            h2.8V31.2z"/>
    </g>
    <g>
        <path d="M33.8,29.8c0,1.2,0.8,1.7,1.9,1.7c1.1,0,2.2-0.4,2.2-1.6c0-1.3-1.3-1.3-2.3-1.7c-0.5-0.1-0.9-0.2-0.9-0.8
            c0-0.6,0.7-0.8,1.2-0.8c0.5,0,1,0.2,1.1,0.8h0.8c0-1-0.9-1.4-1.8-1.4c-1,0-2.1,0.4-2.1,1.6c0,1.2,1.5,1.4,2.4,1.6
            c0.4,0.1,0.9,0.3,0.9,0.8c0,0.7-0.7,0.9-1.4,0.9c-0.7,0-1.2-0.3-1.2-1H33.8z"/>
        <path d="M35.7,31.6c-0.7,0-1.3-0.2-1.6-0.5c-0.3-0.3-0.5-0.7-0.4-1.3l0-0.1h1.1l0,0.1c0,0.6,0.3,0.9,1,0.9c0.4,0,1.2-0.1,1.2-0.8
            c0-0.1,0-0.5-0.8-0.7l-0.2,0c-0.9-0.2-2.3-0.5-2.3-1.7c0-1.3,1.2-1.7,2.2-1.7c0.9,0,2,0.4,2,1.6v0.1h-1.1l0-0.1
            c0-0.6-0.6-0.7-0.9-0.7c-0.1,0-1.1,0-1.1,0.7c0,0.4,0.2,0.5,0.6,0.6c0.1,0,0.1,0,0.2,0.1c0.2,0.1,0.4,0.1,0.6,0.2
            c0.9,0.2,1.8,0.4,1.8,1.7C38,31.2,36.8,31.6,35.7,31.6z M33.9,30c0,0.4,0.1,0.7,0.4,0.9c0.3,0.3,0.8,0.5,1.4,0.5
            c0.5,0,2-0.1,2-1.5c0-1-0.7-1.1-1.6-1.4c-0.2-0.1-0.4-0.1-0.6-0.2c-0.1,0-0.1,0-0.2-0.1c-0.4-0.1-0.8-0.2-0.8-0.9
            c0-0.7,0.8-1,1.4-1c0.7,0,1.1,0.3,1.2,0.8h0.5c-0.1-0.8-0.9-1.1-1.7-1.1c-0.9,0-1.9,0.4-1.9,1.4c0,1,1.2,1.2,2,1.4l0.2,0
            c0.8,0.2,1,0.6,1,1c0,0.7-0.5,1.1-1.5,1.1c-0.8,0-1.2-0.3-1.3-1H33.9z"/>
    </g>
    <g>
        <path d="M28.3,29.8c0,1.2,0.8,1.7,1.9,1.7c1.1,0,2.2-0.4,2.2-1.6c0-1.3-1.3-1.3-2.3-1.7c-0.5-0.1-0.9-0.2-0.9-0.8
            c0-0.6,0.7-0.8,1.2-0.8c0.5,0,1,0.2,1.1,0.8h0.8c0-1-0.9-1.4-1.8-1.4c-1,0-2.1,0.4-2.1,1.6c0,1.2,1.5,1.4,2.4,1.6
            c0.4,0.1,0.9,0.3,0.9,0.8c0,0.7-0.7,0.9-1.4,0.9c-0.7,0-1.2-0.3-1.2-1H28.3z"/>
        <path d="M30.2,31.6c-0.7,0-1.3-0.2-1.6-0.5c-0.3-0.3-0.5-0.7-0.4-1.3l0-0.1h1.1l0,0.1c0,0.6,0.3,0.9,1,0.9c0.4,0,1.2-0.1,1.2-0.8
            c0-0.1,0-0.5-0.8-0.7l-0.2,0c-0.9-0.2-2.2-0.5-2.2-1.7c0-1.3,1.2-1.7,2.2-1.7c1.2,0,2,0.6,2,1.6v0.1h-1.1l0-0.1
            c0-0.6-0.6-0.7-0.9-0.7c-0.1,0-1.1,0-1.1,0.7c0,0.4,0.2,0.5,0.6,0.6c0.1,0,0.1,0,0.2,0.1c0.2,0.1,0.4,0.1,0.6,0.2
            c0.9,0.2,1.8,0.4,1.8,1.7C32.5,31.2,31.3,31.6,30.2,31.6z M28.5,30c0,0.4,0.1,0.7,0.4,0.9c0.3,0.3,0.8,0.5,1.4,0.5
            c0.5,0,2-0.1,2-1.5c0-1-0.7-1.2-1.6-1.4c-0.2-0.1-0.4-0.1-0.6-0.2c-0.1,0-0.1,0-0.2-0.1C29.4,28.2,29,28,29,27.4
            c0-0.7,0.8-1,1.4-1c0.7,0,1.1,0.3,1.2,0.8h0.5c-0.1-0.8-0.9-1.1-1.7-1.1c-0.9,0-1.9,0.4-1.9,1.4c0,1,1.2,1.2,2,1.4l0.2,0
            c0.8,0.2,1,0.6,1,1c0,0.7-0.5,1.1-1.5,1.1c-0.8,0-1.2-0.3-1.3-1H28.5z"/>
    </g>
    <g>
        <path d="M26.6,26h-0.7v3.4c0,0.9-0.6,1.4-1.4,1.4c-0.8,0-1.4-0.5-1.4-1.4V26h-0.7v3.2c0,1.4,0.7,2.2,2.2,2.2
            c1.5,0,2.2-0.9,2.2-2.2V26z"/>
        <path d="M24.5,31.6c-0.7,0-1.3-0.2-1.7-0.6c-0.4-0.4-0.6-1-0.6-1.8v-3.4h1v3.6c0,0.8,0.5,1.3,1.3,1.3c0.8,0,1.2-0.5,1.3-1.3v-3.6
            h1v3.4c0,0.8-0.2,1.4-0.6,1.8C25.8,31.4,25.2,31.6,24.5,31.6z M22.5,26.2v3.1c0,0.7,0.2,1.2,0.5,1.6c0.3,0.3,0.8,0.5,1.5,0.5
            c0.7,0,1.2-0.2,1.5-0.5c0.4-0.4,0.5-0.9,0.5-1.6v-3.1H26v3.3c0,1-0.6,1.6-1.6,1.6c-1,0-1.5-0.6-1.6-1.6v-3.3H22.5z"/>
    </g>
    <g>
        <path d="M19,26h-0.8L16,31.4h0.8l0.6-1.4h2.5l0.6,1.4h0.8L19,26z M17.6,29.3l1-2.6l1,2.6H17.6z"/>
        <path d="M21.4,31.5h-1.1l-0.6-1.4h-2.3l-0.6,1.4h-1.1l2.4-5.7h1l0,0.1L21.4,31.5z M20.5,31.2H21l-2-5.1h-0.6l-2.1,5.1h0.4l0.6-1.4
            h2.7L20.5,31.2z M19.8,29.5h-2.4l1.2-3.2L19.8,29.5z M17.8,29.2h1.6l-0.8-2L17.8,29.2z"/>
    </g>
    <g>
        <path d="M14.6,29.8c-0.1-0.6-0.2-0.9-0.8-1.1v0c0.6-0.1,1-0.6,1-1.3c0-1.1-0.9-1.3-1.8-1.3h-1.9v5.4h0.7V29h1c0.3,0,0.6,0,0.8,0.2
            c0.2,0.3,0.2,0.7,0.3,1.2c0,0.3,0.1,0.7,0.2,1H15C14.8,30.9,14.7,30.3,14.6,29.8z M13.1,28.3h-1.2v-1.7h1.2c0.8,0,1,0.4,1,0.8
            C14.1,27.9,13.9,28.3,13.1,28.3z"/>
        <path d="M15.2,31.5h-1.1L14,31.1c-0.1-0.2-0.1-0.5-0.1-0.7c0-0.1,0-0.2,0-0.2c0-0.4-0.1-0.7-0.2-0.9c-0.1-0.2-0.3-0.2-0.6-0.2
            l-0.1,0l-0.9,0v2.4h-1v-5.7H13c1.3,0,2,0.5,2,1.5c0,0.6-0.3,1.1-0.7,1.3c0.4,0.2,0.5,0.6,0.6,1.1l0,0.3c0.1,0.4,0.1,0.9,0.3,1.3
            L15.2,31.5z M14.3,31.2h0.5c-0.1-0.4-0.2-0.8-0.2-1.2l0-0.3c-0.1-0.6-0.2-0.8-0.7-1l-0.1,0v-0.2l0.1,0c0.5-0.1,0.9-0.6,0.9-1.1
            c0-1-0.9-1.2-1.7-1.2h-1.8v5.1h0.4v-2.4l1.3,0c0.3,0,0.6,0,0.8,0.3c0.2,0.3,0.3,0.6,0.3,1c0,0.1,0,0.2,0,0.2
            c0,0.2,0.1,0.5,0.1,0.7L14.3,31.2z M13.1,28.5h-1.4v-2h1.4c0.8,0,1.2,0.4,1.2,1C14.2,28.1,13.8,28.4,13.1,28.5L13.1,28.5z
             M12,28.2H13c0.8,0,0.9-0.4,0.9-0.7c0-0.3-0.1-0.6-0.9-0.7H12V28.2z"/>
    </g>
    <g>
        <polygon points="7.3,31.4 8.1,31.4 8.1,26.7 9.8,26.7 9.8,26 5.5,26 5.5,26.7 7.3,26.7        "/>
        <path d="M8.2,31.5h-1v-4.7H5.4v-0.9H10v0.9H8.2V31.5z M7.5,31.2h0.4v-4.7h1.8v-0.3h-4v0.3h1.8V31.2z"/>
    </g>
    <g>
        <path d="M0.5,29.8c0,1.2,0.8,1.7,1.9,1.7c1.1,0,2.2-0.4,2.2-1.6c0-1.3-1.3-1.3-2.3-1.7C1.8,28,1.4,28,1.4,27.4
            c0-0.6,0.7-0.8,1.2-0.8c0.5,0,1,0.2,1.1,0.8h0.8c0-1-0.9-1.4-1.8-1.4c-1,0-2.1,0.4-2.1,1.6c0,1.2,1.5,1.4,2.4,1.6
            c0.4,0.1,0.9,0.3,0.9,0.8c0,0.7-0.7,0.9-1.4,0.9c-0.7,0-1.2-0.3-1.2-1H0.5z"/>
        <path d="M2.4,31.6c-0.7,0-1.3-0.2-1.6-0.5c-0.3-0.3-0.5-0.7-0.4-1.3l0-0.1h1.1l0,0.1c0,0.6,0.3,0.9,1,0.9c0.4,0,1.2-0.1,1.2-0.8
            c0-0.1,0-0.5-0.8-0.7l-0.2,0c-0.9-0.2-2.2-0.5-2.2-1.7c0-1.3,1.2-1.7,2.2-1.7c0.9,0,2,0.4,2,1.6v0.1H3.6l0-0.1
            c0-0.6-0.6-0.7-0.9-0.7c-0.1,0-1.1,0-1.1,0.7c0,0.4,0.2,0.5,0.6,0.6c0.1,0,0.1,0,0.2,0.1c0.2,0.1,0.4,0.1,0.6,0.2
            c0.9,0.2,1.8,0.4,1.8,1.7C4.8,31.2,3.6,31.6,2.4,31.6z M0.7,30c0,0.4,0.1,0.7,0.4,0.9c0.3,0.3,0.8,0.5,1.4,0.5c0.5,0,2-0.1,2-1.5
            c0-1-0.7-1.1-1.6-1.4c-0.2-0.1-0.4-0.1-0.6-0.2c-0.1,0-0.1,0-0.2-0.1c-0.4-0.1-0.8-0.2-0.8-0.9c0-0.7,0.8-1,1.4-1
            c0.7,0,1.1,0.3,1.2,0.8h0.5c-0.1-0.8-0.9-1.1-1.7-1.1c-0.9,0-1.9,0.4-1.9,1.4c0,1,1.2,1.2,2,1.4l0.2,0c0.8,0.2,1,0.6,1,1
            C4,30.6,3.4,31,2.5,31c-0.8,0-1.2-0.3-1.3-1H0.7z"/>
    </g>
    <g>
        <path d="M112.4,5.4c-1.2,0-2.5,0.7-3.2,1.7h0l-0.1-1.4h-3.6c0,0.8,0.1,1.6,0.1,2.4v13.8h3.5v-6h0c0.8,1.4,2.1,2,3.6,2
            c3.5,0,5.1-3.2,5.1-6.3C118,8.4,116.1,5.4,112.4,5.4z M111.8,15.5c-1.9,0-2.5-2.3-2.5-3.9c0-1.6,0.6-3.9,2.5-3.9
            c2.3,0,2.5,2.1,2.5,3.9C114.3,13.4,114,15.5,111.8,15.5z"/>
    </g>
    <g>
        <path d="M87.9,5.7h-3.5v11.8h3.5v-7.1c0-1.7,1-2.7,2.1-2.7c1.7,0,2.1,1.4,2.1,2.7v7.1h3.5v-7.1c0-1.7,1-2.7,2.1-2.7
            c1.7,0,2.1,1.4,2.1,2.7v7.1h3.5v-7.1c0-0.9,0-1.9-0.4-2.8c-0.5-1.3-2.4-2.2-3.8-2.2c-1.8,0-2.9,0.7-4,2.2
            c-0.5-1.3-2.4-2.2-3.8-2.2c-1.8,0-2.9,0.7-3.6,1.7h0V5.7z"/>
    </g>
    <g>
        <path d="M78.8,17.5h3.5c-0.1-0.7-0.1-1.4-0.1-2.1V5.7h-3.5v7.1c0,1.7-1,2.7-2.1,2.7c-1.7,0-2.1-1.5-2.1-2.7V5.7h-3.5v7.7
            c0,0.4,0,1.2,0.2,1.9c0.4,1.7,2.7,2.6,3.9,2.6c1.8,0,2.9-0.7,3.6-1.8L78.8,17.5z"/>
    </g>
    <g>
        <path d="M65,11.3v3.6c-1,0.2-1.9,0.4-3.4,0.4c-3.2,0-4.8-2.4-4.8-6.2c0-3.8,1.6-6.2,4.8-6.2c2,0,3.4,0.7,3.4,2.9h3.9
            c0-4-3.1-5.5-8-5.5c-3.4,0-8,2.1-8,8.8c0,6.8,4.6,8.8,8,8.8c2.2,0,3.1-0.1,3.9-0.2c1.3-0.1,2.6-0.4,3.8-0.8V8.5h-7v2.8H65z"/>
    </g>
    <g>
        <path d="M39.7,5.7h-3.5v11.8h3.5v-7.1c0-1.7,1-2.7,2.1-2.7c1.7,0,2.1,1.4,2.1,2.7v7.1h3.5V9.8c0-0.4,0-1.2-0.2-1.9
            c-0.4-1.7-2.7-2.6-3.9-2.6c-1.8,0-2.9,0.7-3.6,1.8l0-0.1V5.7z"/>
    </g>
    <g>
        <rect x="30.4" y="5.7" width="3.5" height="11.8"/>
    </g>
    <g>
        <polygon points="21.4,0.5 17.9,0.5 17.9,17.5 21.4,17.5 21.4,11.1 21.4,11 25,17.5 29.1,17.5 24.8,10.7 28.9,5.5 24.9,5.5 
            21.4,10.5 21.4,10.5         "/>
    </g>
    <g>
        <path d="M11,0.5H6.7l-6.1,17H4l1.3-3.6H12l1.2,3.6h3.7L11,0.5z M6.2,11.1l2.5-7.3h0l2.3,7.3H6.2z"/>
    </g>
</g>
<g>
</g>
<g>
</g>
<g>
</g>
</svg>
